<svg version="1.1" xmlns="http://www.w3.org/2000/svg" viewBox="0 0 1853.0894920923274 421.48073473568314" width="3706.178984184655" height="842.9614694713663">
  <!-- svg-source:excalidraw -->
  
  <defs>
    <style class="style-fonts">
      @font-face {
        font-family: "Virgil";
        src: url("https://excalidraw.com/Virgil.woff2");
      }
      @font-face {
        font-family: "Cascadia";
        src: url("https://excalidraw.com/Cascadia.woff2");
      }
      @font-face {
        font-family: "Assistant";
        src: url("https://excalidraw.com/Assistant-Regular.woff2");
      }
    </style>
    
  </defs>
  <rect x="0" y="0" width="1853.0894920923274" height="421.48073473568314" fill="#ffffff"></rect><g stroke-linecap="round" transform="translate(10 29.45509561416418) rotate(0 117.10030881998136 63.2779836403102)"><path d="M31.64 0 C86.04 -0.74, 139.79 -1.06, 202.56 0 M31.64 0 C66.73 -0.62, 102.81 -1.26, 202.56 0 M202.56 0 C222.7 1.33, 234.49 9.69, 234.2 31.64 M202.56 0 C225.05 0.91, 236.48 11.75, 234.2 31.64 M234.2 31.64 C235.37 51.89, 233.53 75.64, 234.2 94.92 M234.2 31.64 C233.62 49.88, 233.3 67.37, 234.2 94.92 M234.2 94.92 C235.19 116.29, 224.99 127.93, 202.56 126.56 M234.2 94.92 C234.45 116.36, 224.52 126.37, 202.56 126.56 M202.56 126.56 C135.95 127.2, 69.96 127.04, 31.64 126.56 M202.56 126.56 C165.44 127.43, 126.56 127.87, 31.64 126.56 M31.64 126.56 C11.32 128.54, -0.22 116.39, 0 94.92 M31.64 126.56 C11.21 128.69, 0.49 117.18, 0 94.92 M0 94.92 C-0.57 77.85, 1.57 58.9, 0 31.64 M0 94.92 C-1.12 70.27, -0.18 45.82, 0 31.64 M0 31.64 C1.45 11.32, 10.93 2, 31.64 0 M0 31.64 C2.11 9.1, 8.68 -0.87, 31.64 0" stroke="#1e1e1e" stroke-width="1" fill="none"></path></g><g transform="translate(73.73316331487985 83.18062066321039) rotate(0 50.6400032043457 12.5)"><text x="0" y="0" font-family="Virgil, Segoe UI Emoji" font-size="20px" fill="#1e1e1e" text-anchor="start" style="white-space: pre;" direction="ltr" dominant-baseline="text-before-edge">Order API</text></g><g stroke-linecap="round" transform="translate(440.31995843249354 287.70658673355825) rotate(0 96.19653488901918 48.53158516923486)"><path d="M24.27 0 C72.23 0.6, 122.89 1.07, 168.13 0 M24.27 0 C66.17 0.25, 107.41 -1.44, 168.13 0 M168.13 0 C182.41 -1.67, 193.86 7.51, 192.39 24.27 M168.13 0 C182.83 1.74, 193.27 9.44, 192.39 24.27 M192.39 24.27 C190.75 40.65, 193.3 56.65, 192.39 72.8 M192.39 24.27 C193.2 42.78, 192.18 61.29, 192.39 72.8 M192.39 72.8 C194.08 89.56, 183.53 96.82, 168.13 97.06 M192.39 72.8 C193.46 87.47, 183.48 98.61, 168.13 97.06 M168.13 97.06 C136.86 95.59, 106.6 96.54, 24.27 97.06 M168.13 97.06 C113.8 95.87, 60.24 96.57, 24.27 97.06 M24.27 97.06 C6.12 96.6, -0.72 89.88, 0 72.8 M24.27 97.06 C8.35 98.41, -2.13 88.39, 0 72.8 M0 72.8 C-1.94 53.74, 1.1 38.48, 0 24.27 M0 72.8 C0.38 62.67, -0.13 52.52, 0 24.27 M0 24.27 C0.01 6.5, 9.91 1.96, 24.27 0 M0 24.27 C1.43 7.92, 9.77 0.33, 24.27 0" stroke="#1e1e1e" stroke-width="1" fill="none"></path></g><g transform="translate(475.1664948473916 323.7381719027931) rotate(0 61.349998474121094 12.5)"><text x="61.349998474121094" y="0" font-family="Virgil, Segoe UI Emoji" font-size="20px" fill="#1e1e1e" text-anchor="middle" style="white-space: pre;" direction="ltr" dominant-baseline="text-before-edge">OrderConfirm</text></g><g stroke-linecap="round"><g transform="translate(243.59371140720197 98.66720359347858) rotate(0 106.59616028242664 -2.309702372364029)"><path d="M-0.32 -0.32 C34.9 -1.05, 176.66 -3.26, 212.31 -3.85 M1.71 -1.53 C37.22 -2.64, 179.34 -4.86, 214.55 -5.57" stroke="#1e1e1e" stroke-width="1" fill="none"></path></g><g transform="translate(243.59371140720197 98.66720359347858) rotate(0 106.59616028242664 -2.309702372364029)"><path d="M186.55 5.19 C196.66 -0.32, 209.15 -2.31, 214.55 -5.57 M186.55 5.19 C196.66 0.87, 207.6 -3.45, 214.55 -5.57" stroke="#1e1e1e" stroke-width="1" fill="none"></path></g><g transform="translate(243.59371140720197 98.66720359347858) rotate(0 106.59616028242664 -2.309702372364029)"><path d="M186.18 -15.33 C196.52 -13.01, 209.15 -7.17, 214.55 -5.57 M186.18 -15.33 C196.47 -12.21, 207.54 -9.08, 214.55 -5.57" stroke="#1e1e1e" stroke-width="1" fill="none"></path></g></g><mask></mask><g stroke-linecap="round"><g transform="translate(513.1246469364364 25.721763376334025) rotate(89.99999999999994 26.130466310641737 64.9614896642376)" fill-rule="evenodd"><path d="M2.08 -4.82 C2.08 -4.82, 2.08 -4.82, 2.08 -4.82 M2.08 -4.82 C2.08 -4.82, 2.08 -4.82, 2.08 -4.82 M0.51 3.09 C4.03 0.75, 6.72 -4.08, 12.31 -10.5 M0.51 3.09 C2.55 0.69, 4.67 -2.45, 12.31 -10.5 M0.24 9.49 C3.2 4.54, 8.08 1.7, 18.61 -11.64 M0.24 9.49 C5.12 3.63, 10.56 -1.36, 18.61 -11.64 M0.64 15.13 C7.44 7.44, 12.42 2.16, 24.26 -12.04 M0.64 15.13 C6.31 9.53, 10.91 4.92, 24.26 -12.04 M0.38 21.53 C12.31 9.72, 21.06 -1.02, 29.24 -11.68 M0.38 21.53 C7.35 13.77, 15.34 3.71, 29.24 -11.68 M0.77 27.17 C9.84 17.72, 16.37 8.66, 33.57 -10.56 M0.77 27.17 C14.56 11.99, 27.67 -2.94, 33.57 -10.56 M0.51 33.57 C10.52 22.96, 23.24 8.3, 37.91 -9.45 M0.51 33.57 C10.14 22.44, 20.83 10.42, 37.91 -9.45 M0.25 39.97 C16.86 20.19, 29.91 4.15, 42.24 -8.33 M0.25 39.97 C9.43 29.91, 18.59 19.53, 42.24 -8.33 M0.64 45.61 C12.55 29.15, 27.38 18.05, 46.57 -7.22 M0.64 45.61 C10.45 33.36, 21.08 22.47, 46.57 -7.22 M0.38 52.01 C19.81 29.08, 38.08 9.4, 48.93 -3.84 M0.38 52.01 C17.23 32.84, 33.08 13.92, 48.93 -3.84 M0.78 57.65 C13.12 41.09, 29.69 26.89, 51.29 -0.46 M0.78 57.65 C14.68 41.72, 30.23 24.93, 51.29 -0.46 M52.61 -1.97 C52.61 -1.97, 52.61 -1.97, 52.61 -1.97 M52.61 -1.97 C52.61 -1.97, 52.61 -1.97, 52.61 -1.97 M0.52 64.05 C18.38 44.99, 31.76 27.87, 52.34 4.43 M0.52 64.05 C12.69 52, 22.22 38.56, 52.34 4.43 M0.91 69.69 C18.63 50.87, 36.26 27.06, 52.08 10.82 M0.91 69.69 C19.4 47.48, 38.41 27.91, 52.08 10.82 M0.65 76.09 C16.59 60.19, 28.62 45, 52.48 16.47 M0.65 76.09 C13.34 61.51, 26.63 46.65, 52.48 16.47 M1.04 81.73 C21.31 58.76, 36.99 39.27, 52.22 22.86 M1.04 81.73 C13.26 66.78, 27.31 49.69, 52.22 22.86 M0.78 88.13 C14.9 74.71, 24.27 59.78, 52.61 28.51 M0.78 88.13 C12.39 76.51, 22.97 61.65, 52.61 28.51 M0.52 94.53 C10.74 79.25, 24.59 69.54, 52.35 34.91 M0.52 94.53 C14.39 76.43, 29 61.1, 52.35 34.91 M0.91 100.17 C16.28 81.85, 31.24 66.09, 52.09 41.3 M0.91 100.17 C12.38 86.24, 24.17 72.22, 52.09 41.3 M0.65 106.57 C12.98 94.35, 23.97 77.4, 52.48 46.95 M0.65 106.57 C18.68 84.82, 37.99 63.05, 52.48 46.95 M1.05 112.21 C13.47 98.29, 26.01 84.9, 52.22 53.34 M1.05 112.21 C19.98 89.8, 39.25 69, 52.22 53.34 M0.79 118.61 C20.48 93.98, 42.17 72.78, 52.61 58.99 M0.79 118.61 C15.03 102.47, 28.13 87.53, 52.61 58.99 M1.18 124.25 C19.17 105.75, 38.23 85.66, 52.35 65.39 M1.18 124.25 C13.28 110.82, 24.29 97.55, 52.35 65.39 M0.92 130.65 C18.93 113.76, 32.9 93.17, 52.09 71.78 M0.92 130.65 C16.36 112.7, 31 95.47, 52.09 71.78 M2.63 134.78 C13.3 121.1, 25.93 108.93, 52.49 77.43 M2.63 134.78 C19.14 117.08, 34.63 97.59, 52.49 77.43 M5.64 137.41 C19.51 121.76, 37.43 105.16, 52.23 83.82 M5.64 137.41 C23.14 116.36, 41.93 94.24, 52.23 83.82 M9.32 139.28 C25.71 120.91, 41.54 104.28, 52.62 89.47 M9.32 139.28 C24.97 122.98, 38.85 105.98, 52.62 89.47 M13.65 140.39 C21.71 126.74, 33.17 119.03, 52.36 95.86 M13.65 140.39 C21.71 130.17, 30.99 119.65, 52.36 95.86 M17.98 141.51 C28.84 128.1, 39.2 114.42, 52.1 102.26 M17.98 141.51 C27.07 132.02, 35.94 121.63, 52.1 102.26 M22.31 142.62 C33.23 133.21, 41.28 119.5, 52.49 107.91 M22.31 142.62 C30.2 133.65, 39.6 123.12, 52.49 107.91 M27.96 142.23 C36.06 132.17, 46.52 119.75, 52.23 114.3 M27.96 142.23 C32.47 135.53, 38.46 130.17, 52.23 114.3 M34.25 141.08 C38.29 134.07, 45.77 127.7, 52.62 119.95 M34.25 141.08 C39.12 136.3, 41.28 131.94, 52.62 119.95 M39.9 140.68 C41.92 137.66, 46.72 131.73, 52.36 126.34 M39.9 140.68 C42.98 136.05, 46.85 132.04, 52.36 126.34 M50.13 135.01 C50.34 134.75, 50.73 134.15, 51.45 133.5 M50.13 135.01 C50.44 134.73, 50.87 134.19, 51.45 133.5" stroke="#40c057" stroke-width="0.5" fill="none"></path><path d="M0.61 0.6 C0.53 20.15, -0.09 95.73, -0.33 117.24 C-0.58 138.76, -1.54 126.46, -0.86 129.67 C-0.17 132.87, 1.74 134.54, 3.8 136.47 C5.85 138.4, 7.62 140.23, 11.46 141.24 C15.3 142.25, 21.71 142.9, 26.81 142.54 C31.9 142.17, 38 140.49, 42.03 139.04 C46.06 137.59, 49.17 135.56, 51 133.86 C52.83 132.16, 52.98 131.2, 53.04 128.84 C53.09 126.47, 51.51 139.32, 51.33 119.65 C51.14 99.97, 52 30.86, 51.93 10.8 C51.86 -9.26, 51.39 1.93, 50.9 -0.73 C50.4 -3.39, 50.49 -3.65, 48.97 -5.17 C47.44 -6.68, 45.72 -8.62, 41.73 -9.82 C37.75 -11.03, 30.06 -12.43, 25.07 -12.4 C20.08 -12.37, 15.67 -10.68, 11.8 -9.63 C7.94 -8.58, 3.88 -7.79, 1.89 -6.1 C-0.1 -4.42, 0.36 -0.39, -0.13 0.48 C-0.62 1.35, -0.91 -0.88, -1.03 -0.89 M-0.53 -0.13 C-0.82 19.05, -1.9 93.53, -1.55 115.34 C-1.19 137.16, 1.17 127.6, 1.58 130.74 C2 133.89, -1 132.37, 0.96 134.23 C2.92 136.09, 8.89 140.67, 13.34 141.9 C17.79 143.14, 22.86 141.81, 27.67 141.65 C32.47 141.49, 38.46 142.31, 42.18 140.94 C45.9 139.57, 48.37 135.08, 49.98 133.42 C51.59 131.75, 51.58 133.2, 51.84 130.94 C52.11 128.67, 51.54 140.2, 51.59 119.82 C51.64 99.44, 51.96 28.83, 52.13 8.65 C52.3 -11.54, 53.08 1.06, 52.63 -1.29 C52.18 -3.64, 51.34 -3.97, 49.43 -5.45 C47.52 -6.93, 45.21 -8.91, 41.18 -10.17 C37.15 -11.43, 30.04 -12.77, 25.26 -13 C20.49 -13.22, 16.66 -12.67, 12.52 -11.5 C8.39 -10.32, 2.79 -8.04, 0.45 -5.93 C-1.88 -3.83, -1.51 0.33, -1.47 1.14 C-1.43 1.94, 0.6 -0.72, 0.7 -1.09" stroke="#087f5b" stroke-width="1" fill="none"></path></g></g><mask></mask><g stroke-linecap="round"><g transform="translate(488.59723653207953 84.82671993389931) rotate(89.99999999999994 25.358738319623797 5.765431739611103)"><path d="M-0.51 0.42 C-0.53 1.09, -0.98 3.03, 0.47 4.61 C1.92 6.19, 5.92 8.61, 8.2 9.91 C10.48 11.21, 11.26 11.98, 14.18 12.39 C17.1 12.81, 21.44 12.86, 25.72 12.41 C30 11.96, 35.98 11.04, 39.86 9.69 C43.74 8.34, 47.02 6.1, 48.99 4.33 C50.95 2.57, 51.5 -0.3, 51.63 -0.92 M1.43 -0.4 C1.73 0.38, 1.63 4.53, 2.73 5.91 C3.83 7.29, 6.11 7.18, 8.01 7.88 C9.91 8.58, 10.89 9.26, 14.11 10.11 C17.34 10.95, 22.92 12.65, 27.36 12.95 C31.8 13.25, 37.07 13.57, 40.78 11.9 C44.49 10.22, 47.91 5.11, 49.63 2.89 C51.35 0.67, 50.81 -0.92, 51.08 -1.43" stroke="#087f5b" stroke-width="1" fill="none"></path></g></g><mask></mask><g stroke-linecap="round"><g transform="translate(534.0230176805214 85.16580505889942) rotate(89.99999999999994 25.28623953630185 4.621570289024788)"><path d="M-0.86 -0.45 C-0.37 0.25, 1.21 3.25, 2.43 4.66 C3.66 6.06, 4.62 7.11, 6.49 7.97 C8.36 8.83, 10.46 9.66, 13.67 9.81 C16.88 9.97, 21.26 9.19, 25.76 8.92 C30.27 8.66, 36.68 9.15, 40.68 8.21 C44.68 7.27, 48.27 4.54, 49.75 3.29 C51.24 2.04, 49.51 1.18, 49.61 0.72 M0.88 -1.74 C1.35 -1.42, 1.31 1.58, 2.06 2.85 C2.82 4.12, 3.53 4.53, 5.41 5.9 C7.3 7.27, 9.69 10.57, 13.36 11.07 C17.04 11.57, 22.67 9.57, 27.46 8.9 C32.25 8.24, 38.8 7.65, 42.1 7.07 C45.39 6.49, 45.61 6.44, 47.21 5.43 C48.82 4.42, 50.91 1.96, 51.74 1" stroke="#087f5b" stroke-width="1" fill="none"></path></g></g><mask></mask><g stroke-linecap="round" transform="translate(580.6277908126365 79.31260913801123) rotate(89.99999999999994 25.639064267762677 11.398576284497977)"><path d="M17.4 0.41 C22.22 -0.35, 29.49 0.63, 34.79 1.54 C40.09 2.44, 46.59 3.76, 49.2 5.86 C51.8 7.95, 51.68 11.7, 50.42 14.11 C49.16 16.52, 45.86 18.86, 41.64 20.29 C37.42 21.72, 30.69 22.8, 25.09 22.7 C19.5 22.61, 12.18 21.23, 8.07 19.72 C3.97 18.22, 1.25 16.21, 0.46 13.66 C-0.33 11.1, 0.07 6.49, 3.32 4.39 C6.58 2.28, 17.08 1.59, 19.98 1.03 C22.87 0.47, 20.72 1.14, 20.69 1.04 M26.86 1.14 C32.09 0.98, 40.3 2.41, 44.38 3.68 C48.47 4.95, 50.64 6.53, 51.37 8.77 C52.11 11.02, 51.69 14.84, 48.79 17.12 C45.89 19.41, 39.55 21.83, 33.95 22.48 C28.36 23.13, 20.55 22.17, 15.23 21.04 C9.91 19.92, 4.33 17.77, 2.03 15.75 C-0.26 13.73, 0.38 11.32, 1.46 8.92 C2.55 6.53, 4.25 2.62, 8.52 1.37 C12.8 0.12, 23.89 1.66, 27.1 1.43 C30.31 1.2, 27.84 0.11, 27.81 -0.01" stroke="none" stroke-width="0" fill="#fff"></path><path d="M19.65 -0.44 C24.45 -1, 31.32 -0.18, 36.19 1.15 C41.07 2.47, 46.59 5.41, 48.89 7.51 C51.2 9.6, 51.33 11.53, 50.02 13.72 C48.7 15.91, 45.36 19.28, 40.99 20.65 C36.63 22.01, 29.49 22.07, 23.82 21.91 C18.16 21.76, 10.82 21.27, 7 19.7 C3.18 18.12, 1.32 14.98, 0.93 12.45 C0.53 9.91, 0.45 6.65, 4.63 4.49 C8.82 2.34, 21.24 0.19, 26.05 -0.5 C30.86 -1.18, 33.65 0.12, 33.5 0.38 M30.37 0.83 C35.59 1.49, 41.98 3.29, 45.25 5.09 C48.51 6.9, 50.36 9.28, 49.98 11.68 C49.61 14.07, 46.56 17.52, 43.02 19.44 C39.48 21.36, 34.16 23.1, 28.75 23.2 C23.34 23.31, 15.12 21.7, 10.55 20.06 C5.98 18.41, 2.7 15.35, 1.33 13.34 C-0.03 11.34, 0.1 10.16, 2.37 8.03 C4.64 5.9, 10 1.92, 14.97 0.56 C19.95 -0.8, 29.42 -0.26, 32.23 -0.11 C35.04 0.03, 32.02 1.21, 31.84 1.43" stroke="#087f5b" stroke-width="1" fill="none"></path></g><g transform="translate(480.1851891072221 19.04959740386505) rotate(0 66.71000671386719 12.5)"><text x="0" y="0" font-family="Virgil, Segoe UI Emoji" font-size="20px" fill="#1e1e1e" text-anchor="start" style="white-space: pre;" direction="ltr" dominant-baseline="text-before-edge">OrderCreated</text></g><g stroke-linecap="round"><g transform="translate(533.0499515237102 119.57930954013733) rotate(0 0.8666354494505981 84.93027404616106)"><path d="M1.05 -0.04 C1.22 28.13, 0.67 141.73, 0.75 170.05 M0.14 -1.1 C0.7 27.19, 2.86 139.31, 2.94 168.03" stroke="#1e1e1e" stroke-width="1" fill="none"></path></g><g transform="translate(533.0499515237102 119.57930954013733) rotate(0 0.8666354494505981 84.93027404616106)"><path d="M-7.66 139.97 C-4.52 146.04, -1.19 155.1, 2.94 168.03 M-7.66 139.97 C-4.83 149.49, -1.46 158, 2.94 168.03" stroke="#1e1e1e" stroke-width="1" fill="none"></path></g><g transform="translate(533.0499515237102 119.57930954013733) rotate(0 0.8666354494505981 84.93027404616106)"><path d="M12.86 139.72 C10.3 146.04, 7.92 155.17, 2.94 168.03 M12.86 139.72 C9.44 149.25, 6.56 157.83, 2.94 168.03" stroke="#1e1e1e" stroke-width="1" fill="none"></path></g></g><mask></mask><g stroke-linecap="round"><g transform="translate(843.8432319036426 23.219308471837735) rotate(89.99999999999994 26.130466310641737 64.9614896642376)" fill-rule="evenodd"><path d="M2.08 -4.82 C2.08 -4.82, 2.08 -4.82, 2.08 -4.82 M2.08 -4.82 C2.08 -4.82, 2.08 -4.82, 2.08 -4.82 M1.82 1.58 C4.77 -2.97, 9.23 -5.62, 12.31 -10.5 M1.82 1.58 C4.76 -1.09, 7.09 -4.72, 12.31 -10.5 M1.56 7.98 C5.56 1.72, 13.29 -2.44, 18.61 -11.64 M1.56 7.98 C7.77 0.27, 14.18 -7.3, 18.61 -11.64 M1.95 13.62 C7.17 5.5, 17.12 -3.52, 24.26 -12.04 M1.95 13.62 C8.17 6.57, 12.8 1.63, 24.26 -12.04 M1.69 20.02 C11.84 12.52, 16.76 2.15, 27.93 -10.17 M1.69 20.02 C10.71 11.03, 17.12 1.19, 27.93 -10.17 M2.08 25.66 C12.29 14.87, 20.64 3.14, 32.26 -9.06 M2.08 25.66 C8.05 19.4, 14.77 11.88, 32.26 -9.06 M1.82 32.06 C16.29 19.9, 25.81 3.48, 36.59 -7.94 M1.82 32.06 C10.96 20.75, 20.13 11.65, 36.59 -7.94 M2.22 37.7 C14 24.9, 28.38 9.34, 41.58 -7.58 M2.22 37.7 C12.28 25.74, 22.52 15.15, 41.58 -7.58 M1.96 44.1 C12.78 32.52, 19.74 23.27, 46.57 -7.22 M1.96 44.1 C10.92 32.3, 20.66 23.39, 46.57 -7.22 M2.35 49.74 C13.84 36.3, 23.43 23.83, 48.93 -3.84 M2.35 49.74 C15.97 33.78, 29.6 19.16, 48.93 -3.84 M2.09 56.14 C22.63 31.9, 42.97 10.05, 51.95 -1.22 M2.09 56.14 C13.33 42.06, 25.91 29.19, 51.95 -1.22 M52.61 -1.97 C52.61 -1.97, 52.61 -1.97, 52.61 -1.97 M52.61 -1.97 C52.61 -1.97, 52.61 -1.97, 52.61 -1.97 M2.48 61.78 C18.31 44.68, 29.19 31.05, 52.34 4.43 M2.48 61.78 C17.47 45.93, 31.27 30.57, 52.34 4.43 M2.22 68.18 C18.99 48.04, 36.84 30.6, 52.08 10.82 M2.22 68.18 C20.49 47.48, 38.53 27.22, 52.08 10.82 M1.96 74.58 C18.12 55.44, 34.71 34.26, 52.48 16.47 M1.96 74.58 C12.13 62.76, 22.81 49.26, 52.48 16.47 M2.35 80.22 C21.71 58.82, 42.1 34.83, 52.22 22.86 M2.35 80.22 C15.52 65.49, 27.21 52.91, 52.22 22.86 M2.09 86.62 C15.68 71.13, 32.12 55.08, 52.61 28.51 M2.09 86.62 C20.33 64.2, 38.92 42.52, 52.61 28.51 M2.49 92.26 C12.72 79.12, 21.33 69.43, 52.35 34.91 M2.49 92.26 C20.26 71.28, 38.53 49.96, 52.35 34.91 M2.23 98.66 C21.29 76.37, 38.82 54.37, 52.09 41.3 M2.23 98.66 C14 86.41, 23.55 75.93, 52.09 41.3 M2.62 104.3 C16.74 90.8, 29.4 75.52, 52.48 46.95 M2.62 104.3 C15.17 89.34, 28.2 74.43, 52.48 46.95 M2.36 110.7 C18.48 93, 34.43 73.45, 52.22 53.34 M2.36 110.7 C13.92 98.88, 23.85 86.14, 52.22 53.34 M2.75 116.35 C21.46 96.33, 41.43 75.01, 52.61 58.99 M2.75 116.35 C15.53 101.49, 29.71 84.74, 52.61 58.99 M2.49 122.74 C15.39 104.18, 30.2 88.02, 52.35 65.39 M2.49 122.74 C15.07 107.3, 29.04 93.18, 52.35 65.39 M2.23 129.14 C14.94 111.91, 29.03 95.51, 52.09 71.78 M2.23 129.14 C13.45 115.59, 25.59 103.01, 52.09 71.78 M2.63 134.78 C20.65 114.17, 38.71 91.26, 52.49 77.43 M2.63 134.78 C13.81 122.6, 23.55 110.09, 52.49 77.43 M5.64 137.41 C16.47 124.56, 31.23 107.76, 52.23 83.82 M5.64 137.41 C22.01 119.08, 39.18 98.28, 52.23 83.82 M8.66 140.03 C21.26 124.28, 36.66 105.95, 52.62 89.47 M8.66 140.03 C22.19 122.99, 38.15 106.3, 52.62 89.47 M12.99 141.15 C26.93 125.17, 42.58 110.13, 52.36 95.86 M12.99 141.15 C28.38 123.17, 42.91 106.11, 52.36 95.86 M17.33 142.26 C29.91 125.98, 42.98 112.94, 52.1 102.26 M17.33 142.26 C25.55 131.61, 34.54 122.12, 52.1 102.26 M21.66 143.38 C29.52 133.23, 37.74 125.49, 52.49 107.91 M21.66 143.38 C34.13 129.27, 46.1 116.56, 52.49 107.91 M27.96 142.23 C34.93 134.78, 42.17 126.05, 52.23 114.3 M27.96 142.23 C33.17 136.2, 37.1 129.92, 52.23 114.3 M34.25 141.08 C40.49 133.17, 46.28 128.63, 52.62 119.95 M34.25 141.08 C41.05 132.77, 48.66 124.4, 52.62 119.95 M39.9 140.68 C44.38 138.18, 47.23 135.95, 52.36 126.34 M39.9 140.68 C42.45 137.84, 46.64 132.8, 52.36 126.34 M44.88 141.04 C46.19 138.75, 50.15 135.19, 54.07 130.48 M44.88 141.04 C48.6 137.14, 51.58 134.25, 54.07 130.48" stroke="#40c057" stroke-width="0.5" fill="none"></path><path d="M-0.87 -0.75 C-0.65 18.69, 0.29 95.55, 0.35 117.52 C0.41 139.49, -0.96 127.98, -0.51 131.08 C-0.06 134.18, 1.11 134.49, 3.08 136.13 C5.04 137.78, 7.16 140.03, 11.29 140.93 C15.43 141.83, 22.8 141.82, 27.91 141.54 C33.01 141.26, 38.25 140.66, 41.92 139.26 C45.58 137.85, 48.36 134.85, 49.9 133.12 C51.44 131.39, 50.83 131.48, 51.16 128.86 C51.49 126.24, 51.55 137.32, 51.89 117.38 C52.23 97.45, 53.32 28.92, 53.2 9.23 C53.08 -10.46, 52.07 1.74, 51.16 -0.75 C50.25 -3.24, 49.29 -4.31, 47.73 -5.72 C46.18 -7.12, 45.43 -8.04, 41.85 -9.19 C38.27 -10.35, 31.17 -12.2, 26.25 -12.63 C21.32 -13.07, 16.48 -13.01, 12.32 -11.79 C8.15 -10.58, 3.29 -7.46, 1.25 -5.35 C-0.79 -3.23, 0.36 -0.06, 0.06 0.9 C-0.23 1.85, -0.54 0.64, -0.53 0.41 M0.88 1.47 C1.04 20.49, -0.09 94.47, -0.5 115.77 C-0.9 137.06, -2.22 125.64, -1.55 129.24 C-0.88 132.84, 1.08 135.35, 3.52 137.38 C5.96 139.41, 8.78 140.36, 13.09 141.43 C17.39 142.49, 24.52 143.81, 29.34 143.78 C34.16 143.76, 38.24 143.18, 42.01 141.27 C45.78 139.35, 50.19 134.01, 51.96 132.3 C53.73 130.58, 52.56 133.02, 52.64 130.98 C52.72 128.93, 52.82 140.2, 52.45 120.03 C52.07 99.85, 50.3 30.15, 50.4 9.92 C50.5 -10.3, 53.51 1.37, 53.03 -1.33 C52.56 -4.03, 49.5 -4.97, 47.55 -6.28 C45.6 -7.6, 44.77 -8.03, 41.35 -9.21 C37.94 -10.39, 31.73 -13.03, 27.06 -13.36 C22.38 -13.68, 17.29 -12.57, 13.31 -11.14 C9.32 -9.71, 5.55 -6.32, 3.14 -4.78 C0.73 -3.24, -0.9 -2.83, -1.17 -1.89 C-1.45 -0.95, 1.16 0.37, 1.46 0.88" stroke="#087f5b" stroke-width="1" fill="none"></path></g></g><mask></mask><g stroke-linecap="round"><g transform="translate(819.3158214992857 82.32426502940285) rotate(89.99999999999994 25.358738319623797 5.765431739611103)"><path d="M0.18 0.7 C0.46 1.83, -0.4 4.54, 0.82 6.02 C2.04 7.5, 5.28 8.56, 7.48 9.57 C9.68 10.58, 10.79 11.78, 14.01 12.08 C17.23 12.39, 22.53 11.77, 26.82 11.41 C31.11 11.04, 36.23 11.21, 39.74 9.91 C43.26 8.6, 46.22 5.4, 47.89 3.6 C49.55 1.8, 49.34 -0.02, 49.75 -0.89 M-1.18 0.03 C-1.03 0.9, -1.75 2.57, -0.4 4.4 C0.95 6.24, 4.54 9.55, 6.92 11.03 C9.29 12.51, 10.78 13.22, 13.86 13.29 C16.94 13.35, 20.92 11.6, 25.38 11.42 C29.83 11.25, 36.84 13.22, 40.6 12.22 C44.37 11.23, 46.08 7.7, 47.95 5.43 C49.83 3.16, 51.18 -0.5, 51.87 -1.39" stroke="#087f5b" stroke-width="1" fill="none"></path></g></g><mask></mask><g stroke-linecap="round"><g transform="translate(864.7416026477276 82.66335015440296) rotate(89.99999999999994 25.286239536301878 4.621570289024788)"><path d="M-0.52 0.96 C-0.26 1.56, 0.57 3.21, 1.71 4.32 C2.85 5.44, 4.15 6.91, 6.32 7.66 C8.5 8.41, 11.55 8.57, 14.77 8.81 C17.99 9.06, 21.51 9.36, 25.65 9.14 C29.79 8.92, 35.88 8.45, 39.58 7.48 C43.29 6.51, 46.11 4.82, 47.87 3.32 C49.64 1.81, 49.55 -0.82, 50.17 -1.55 M1.41 0.42 C1.53 0.58, -0.27 0.9, 0.97 2.34 C2.2 3.79, 6.48 7.88, 8.82 9.08 C11.17 10.29, 11.96 9.52, 15.04 9.55 C18.12 9.57, 23.06 9.22, 27.29 9.23 C31.52 9.24, 36.97 10.85, 40.42 9.61 C43.87 8.37, 46.59 3.21, 48.01 1.81 C49.43 0.41, 48.52 1.35, 48.94 1.21" stroke="#087f5b" stroke-width="1" fill="none"></path></g></g><mask></mask><g stroke-linecap="round" transform="translate(911.3463757798427 76.81015423351477) rotate(89.99999999999994 25.639064267762706 11.398576284497977)"><path d="M33.63 1.13 C38.62 1.54, 44.76 3.23, 47.62 5.17 C50.47 7.11, 51.69 10.13, 50.75 12.76 C49.82 15.38, 46.07 19.12, 42.01 20.94 C37.94 22.77, 31.65 23.93, 26.35 23.7 C21.05 23.47, 14.56 21.29, 10.19 19.56 C5.83 17.83, 1.39 15.64, 0.15 13.34 C-1.08 11.03, -0.02 7.79, 2.77 5.74 C5.56 3.7, 11.12 1.97, 16.89 1.08 C22.66 0.19, 33.37 0.11, 37.4 0.42 C41.44 0.73, 41.25 2.71, 41.08 2.94 M17.57 0.55 C22.41 -0.4, 31.82 0.13, 36.82 1.1 C41.82 2.06, 45.06 3.95, 47.58 6.35 C50.09 8.75, 53.21 13.05, 51.9 15.5 C50.58 17.96, 44.36 20.06, 39.68 21.08 C34.99 22.1, 29.04 21.7, 23.78 21.64 C18.51 21.58, 11.96 22.45, 8.09 20.72 C4.22 18.99, 1.26 13.81, 0.58 11.28 C-0.11 8.75, 0.93 7.52, 3.99 5.55 C7.06 3.58, 16.5 0.19, 18.98 -0.53 C21.46 -1.25, 19.05 0.78, 18.89 1.23" stroke="none" stroke-width="0" fill="#fff"></path><path d="M17.11 -0.32 C21.86 -1.33, 29.69 -1.01, 34.75 -0.09 C39.82 0.84, 44.88 2.98, 47.5 5.23 C50.12 7.48, 51.62 10.76, 50.46 13.43 C49.3 16.1, 44.9 19.78, 40.54 21.24 C36.18 22.7, 29.67 22.53, 24.29 22.19 C18.91 21.85, 12.19 20.69, 8.26 19.22 C4.32 17.74, 1.34 15.51, 0.66 13.32 C-0.02 11.14, 0.61 8.34, 4.17 6.13 C7.73 3.91, 18.38 1.14, 22.02 0.03 C25.65 -1.09, 25.94 -0.79, 25.99 -0.58 M35.81 0.3 C41.05 1.11, 47.31 4.7, 49.7 6.93 C52.09 9.15, 51.41 11.22, 50.15 13.67 C48.88 16.12, 46.43 20.34, 42.13 21.64 C37.83 22.94, 30.22 21.61, 24.32 21.47 C18.42 21.33, 10.58 22.33, 6.73 20.79 C2.88 19.24, 1.56 14.89, 1.25 12.2 C0.94 9.51, 1.89 6.45, 4.88 4.66 C7.88 2.87, 14.19 2.14, 19.22 1.45 C24.24 0.76, 32.47 0.62, 35.04 0.54 C37.61 0.45, 34.73 0.46, 34.62 0.95" stroke="#087f5b" stroke-width="1" fill="none"></path></g><g stroke-linecap="round"><g transform="translate(632.713028210532 324.10527561048394) rotate(0 115.2625147769329 -103.12961848462416)"><path d="M1.2 0.52 C39.35 -33.69, 191.68 -171.4, 229.73 -205.74 M0.36 -0.25 C38.84 -34.79, 193.44 -173.06, 232.03 -207.59" stroke="#1e1e1e" stroke-width="1" fill="none"></path></g><g transform="translate(632.713028210532 324.10527561048394) rotate(0 115.2625147769329 -103.12961848462416)"><path d="M217.86 -181.15 C224 -192.26, 229.17 -202.24, 232.03 -207.59 M217.86 -181.15 C222.29 -190.59, 227.54 -201.11, 232.03 -207.59" stroke="#1e1e1e" stroke-width="1" fill="none"></path></g><g transform="translate(632.713028210532 324.10527561048394) rotate(0 115.2625147769329 -103.12961848462416)"><path d="M204.18 -196.44 C215.26 -202.11, 225.42 -206.51, 232.03 -207.59 M204.18 -196.44 C213.54 -200.22, 223.77 -205.17, 232.03 -207.59" stroke="#1e1e1e" stroke-width="1" fill="none"></path></g></g><mask></mask><g transform="translate(799.1070345050516 25.116045550018953) rotate(0 72.51000213623047 12.5)"><text x="0" y="0" font-family="Virgil, Segoe UI Emoji" font-size="20px" fill="#1e1e1e" text-anchor="start" style="white-space: pre;" direction="ltr" dominant-baseline="text-before-edge">OrderConfirmed</text></g><g stroke-linecap="round" transform="translate(1168.950703952017 30.659288689552227) rotate(0 112.0369117394763 49.26445764430866)"><path d="M24.63 0 C88.15 -0.8, 150.02 -2.44, 199.44 0 M24.63 0 C69.21 0.78, 115.55 0.79, 199.44 0 M199.44 0 C214.19 -1.21, 224.27 9.44, 224.07 24.63 M199.44 0 C214.69 1.14, 222.83 8.18, 224.07 24.63 M224.07 24.63 C224.87 39.82, 223.73 51.9, 224.07 73.9 M224.07 24.63 C223.47 34.24, 225.27 44.07, 224.07 73.9 M224.07 73.9 C224.52 91.92, 215.15 99.85, 199.44 98.53 M224.07 73.9 C223.31 91.83, 217.58 99.45, 199.44 98.53 M199.44 98.53 C133.3 100.78, 69.43 101.1, 24.63 98.53 M199.44 98.53 C158.57 99.49, 119.13 99.53, 24.63 98.53 M24.63 98.53 C7.17 96.96, 1.06 88.51, 0 73.9 M24.63 98.53 C10.09 99.52, -0.69 91.25, 0 73.9 M0 73.9 C0.32 57.25, 1.91 38.91, 0 24.63 M0 73.9 C-0.81 61.37, -0.21 46.83, 0 24.63 M0 24.63 C-0.08 10.01, 9.67 -1.34, 24.63 0 M0 24.63 C-1.41 6.73, 7.73 -0.84, 24.63 0" stroke="#1e1e1e" stroke-width="1" fill="none"></path></g><g transform="translate(1243.6419784450013 67.21033790952322) rotate(0 34.06999969482422 12.5)"><text x="0" y="0" font-family="Virgil, Segoe UI Emoji" font-size="20px" fill="#1e1e1e" text-anchor="start" style="white-space: pre;" direction="ltr" dominant-baseline="text-before-edge">Kitchen</text></g><g stroke-linecap="round"><g transform="translate(949.6444086321912 83.1020984399454) rotate(0 112.03691173947618 0)"><path d="M0.49 -0.78 C38.08 -0.89, 187.98 0.23, 225.2 0.49 M-0.71 1.43 C36.86 1.47, 187.57 -0.94, 224.84 -1.37" stroke="#1e1e1e" stroke-width="1" fill="none"></path></g><g transform="translate(949.6444086321912 83.1020984399454) rotate(0 112.03691173947618 0)"><path d="M196.8 9.28 C203.01 8.15, 212.73 3, 224.84 -1.37 M196.8 9.28 C206.68 6.53, 217.08 1.42, 224.84 -1.37" stroke="#1e1e1e" stroke-width="1" fill="none"></path></g><g transform="translate(949.6444086321912 83.1020984399454) rotate(0 112.03691173947618 0)"><path d="M196.52 -11.24 C203 -6.8, 212.8 -6.38, 224.84 -1.37 M196.52 -11.24 C206.64 -6.49, 217.15 -4.1, 224.84 -1.37" stroke="#1e1e1e" stroke-width="1" fill="none"></path></g></g><mask></mask><g stroke-linecap="round"><g transform="translate(1672.2104545913378 12.1282655337086) rotate(89.99999999999994 26.130466310641737 64.9614896642376)" fill-rule="evenodd"><path d="M2.08 -4.82 C2.08 -4.82, 2.08 -4.82, 2.08 -4.82 M2.08 -4.82 C2.08 -4.82, 2.08 -4.82, 2.08 -4.82 M1.82 1.58 C6.15 -3.74, 8.51 -5.65, 12.31 -10.5 M1.82 1.58 C4.51 -1.17, 8.14 -5.71, 12.31 -10.5 M1.56 7.98 C8.44 4.08, 10.05 -4.43, 18.61 -11.64 M1.56 7.98 C7.98 0.4, 14.82 -6.87, 18.61 -11.64 M1.95 13.62 C8.47 8.09, 10.4 2.52, 24.26 -12.04 M1.95 13.62 C6.24 8.69, 12.12 2.82, 24.26 -12.04 M1.69 20.02 C10.48 9.59, 19.85 -0.8, 27.93 -10.17 M1.69 20.02 C11.15 8.85, 21.61 -3.09, 27.93 -10.17 M2.08 25.66 C10.61 16.66, 16.37 8.52, 32.26 -9.06 M2.08 25.66 C13.99 12.02, 23.45 0.66, 32.26 -9.06 M1.82 32.06 C12.66 17.52, 27.97 3.91, 36.59 -7.94 M1.82 32.06 C11.17 21.89, 18.29 12.42, 36.59 -7.94 M2.22 37.7 C14.25 19.95, 31.33 4.36, 41.58 -7.58 M2.22 37.7 C14.02 21.67, 28.15 7.37, 41.58 -7.58 M1.96 44.1 C18.58 24.24, 33.58 7.29, 46.57 -7.22 M1.96 44.1 C13.36 29.4, 25.79 15.6, 46.57 -7.22 M2.35 49.74 C21.74 28.69, 38.96 9.54, 48.93 -3.84 M2.35 49.74 C14.74 35.42, 26.22 22.4, 48.93 -3.84 M2.09 56.14 C15.7 38.95, 33.47 23.09, 51.95 -1.22 M2.09 56.14 C15.22 39.93, 29.4 23.77, 51.95 -1.22 M52.61 -1.97 C52.61 -1.97, 52.61 -1.97, 52.61 -1.97 M52.61 -1.97 C52.61 -1.97, 52.61 -1.97, 52.61 -1.97 M2.48 61.78 C19.54 44.68, 33.61 24.51, 52.34 4.43 M2.48 61.78 C12.71 50.26, 21.99 38.79, 52.34 4.43 M2.22 68.18 C12.45 54.43, 26.1 40.22, 52.08 10.82 M2.22 68.18 C18.96 48.34, 37.8 26.79, 52.08 10.82 M1.96 74.58 C18.59 57.11, 31.79 39.52, 52.48 16.47 M1.96 74.58 C21.59 52.1, 42.27 27.76, 52.48 16.47 M2.35 80.22 C13.75 67.75, 23.6 59.28, 52.22 22.86 M2.35 80.22 C19.49 60.62, 36.49 40.93, 52.22 22.86 M2.09 86.62 C14.92 68.85, 28.58 55.2, 52.61 28.51 M2.09 86.62 C21.15 64.89, 38.94 41.79, 52.61 28.51 M2.49 92.26 C12.62 77.93, 25.8 65.08, 52.35 34.91 M2.49 92.26 C19.05 74.17, 34.55 53.94, 52.35 34.91 M2.23 98.66 C21.39 77.58, 38.37 56.29, 52.09 41.3 M2.23 98.66 C16.1 81.22, 32.26 64.12, 52.09 41.3 M2.62 104.3 C20.59 82.34, 40.46 63.41, 52.48 46.95 M2.62 104.3 C12.06 93.66, 23.32 81.76, 52.48 46.95 M2.36 110.7 C18.75 91.38, 35.46 71.93, 52.22 53.34 M2.36 110.7 C17.46 93.16, 31.81 76.83, 52.22 53.34 M2.75 116.35 C18.86 98.32, 37.18 78.92, 52.61 58.99 M2.75 116.35 C20.58 95.78, 37.88 76.57, 52.61 58.99 M2.49 122.74 C15.46 106.37, 29.94 89.53, 52.35 65.39 M2.49 122.74 C14.12 107.65, 27.96 93.21, 52.35 65.39 M2.23 129.14 C13.08 114.74, 23.1 103.11, 52.09 71.78 M2.23 129.14 C18.74 110.97, 36.57 91.18, 52.09 71.78 M2.63 134.78 C20.83 111.06, 40.56 92.07, 52.49 77.43 M2.63 134.78 C16.68 117.65, 31.64 100.65, 52.49 77.43 M5.64 137.41 C15.65 125.15, 23.6 116.91, 52.23 83.82 M5.64 137.41 C15.96 125.56, 28.28 111.41, 52.23 83.82 M8.66 140.03 C17.73 129.91, 27.06 119.47, 52.62 89.47 M8.66 140.03 C23.31 121.71, 38.94 106.01, 52.62 89.47 M12.99 141.15 C22.91 127.12, 34.82 115.35, 52.36 95.86 M12.99 141.15 C25.63 127.96, 36.83 112.8, 52.36 95.86 M17.33 142.26 C28.09 127.88, 39.64 113.8, 52.1 102.26 M17.33 142.26 C26.61 132.78, 35.3 121.43, 52.1 102.26 M21.66 143.38 C30.79 135.95, 37.59 123.3, 52.49 107.91 M21.66 143.38 C30.07 133.07, 39.66 122.14, 52.49 107.91 M27.96 142.23 C38.09 131.09, 45.78 123.83, 52.23 114.3 M27.96 142.23 C36.88 131.72, 43.82 122.51, 52.23 114.3 M34.25 141.08 C39.92 135.99, 42.28 132.04, 52.62 119.95 M34.25 141.08 C40.55 132.48, 47.51 126.31, 52.62 119.95 M39.9 140.68 C43.82 134.26, 47.43 130.87, 52.36 126.34 M39.9 140.68 C43.6 137.67, 45.91 133.45, 52.36 126.34 M44.88 141.04 C48.08 137.43, 49.05 137.57, 54.07 130.48 M44.88 141.04 C48.14 137.5, 51.14 134.36, 54.07 130.48" stroke="#40c057" stroke-width="0.5" fill="none"></path><path d="M-0.72 0.88 C-0.43 20.37, 1.22 95.01, 1.19 116.67 C1.16 138.32, -1.02 127.46, -0.91 130.8 C-0.8 134.13, -0.36 135.05, 1.85 136.68 C4.05 138.31, 8.01 139.66, 12.32 140.58 C16.64 141.51, 22.64 142.29, 27.74 142.22 C32.85 142.16, 39.05 141.55, 42.95 140.18 C46.85 138.8, 49.79 135.96, 51.13 133.98 C52.46 132, 50.62 130.85, 50.97 128.28 C51.33 125.71, 53.07 138.47, 53.24 118.54 C53.41 98.61, 52.36 28.48, 51.98 8.67 C51.61 -11.13, 51.6 2.24, 50.99 -0.28 C50.37 -2.8, 49.84 -4.77, 48.29 -6.44 C46.74 -8.11, 45.48 -9.4, 41.69 -10.29 C37.9 -11.19, 30.3 -11.59, 25.57 -11.82 C20.84 -12.04, 17.37 -12.73, 13.33 -11.66 C9.3 -10.59, 3.67 -7.38, 1.35 -5.38 C-0.97 -3.38, -0.19 -0.37, -0.59 0.36 C-0.99 1.1, -1.03 -0.94, -1.04 -0.98 M1.1 0.29 C1.38 20.01, 0.7 96.7, 0.77 118.12 C0.84 139.54, 1.36 126.08, 1.51 128.81 C1.65 131.55, 0.07 132.54, 1.65 134.55 C3.23 136.57, 6.42 139.8, 10.99 140.9 C15.57 142, 23.66 141.49, 29.09 141.17 C34.52 140.86, 40.06 140.28, 43.58 139.02 C47.09 137.76, 48.71 135.09, 50.17 133.61 C51.63 132.12, 52.24 132.67, 52.35 130.09 C52.47 127.51, 50.88 138.3, 50.85 118.13 C50.83 97.96, 51.89 28.86, 52.21 9.07 C52.53 -10.72, 53.4 2.13, 52.77 -0.61 C52.13 -3.35, 50.34 -5.68, 48.4 -7.39 C46.45 -9.1, 44.84 -10.1, 41.11 -10.89 C37.38 -11.67, 31.01 -12.1, 26.02 -12.11 C21.04 -12.11, 14.98 -12.15, 11.2 -10.94 C7.41 -9.72, 4.91 -6.81, 3.3 -4.83 C1.68 -2.85, 1.93 0.36, 1.49 0.96 C1.06 1.56, 1.02 -0.81, 0.69 -1.24" stroke="#087f5b" stroke-width="1" fill="none"></path></g></g><mask></mask><g stroke-linecap="round"><g transform="translate(1647.6830441869809 71.233222091274) rotate(89.99999999999994 25.358738319623853 5.765431739611103)"><path d="M1.01 -0.15 C1.21 0.66, -0.45 4.03, 0.42 5.74 C1.29 7.45, 3.82 9.12, 6.25 10.12 C8.69 11.12, 11.64 11.41, 15.04 11.73 C18.44 12.06, 22.37 12.24, 26.66 12.09 C30.95 11.94, 37.03 12.1, 40.77 10.83 C44.52 9.56, 47.65 6.51, 49.11 4.46 C50.58 2.41, 49.13 -0.64, 49.56 -1.47 M0.09 -1.28 C0.71 -0.89, 1.22 2.39, 2.65 3.97 C4.09 5.55, 6.57 6.74, 8.7 8.21 C10.83 9.67, 12.69 12.05, 15.43 12.76 C18.17 13.47, 20.66 12.94, 25.12 12.47 C29.58 12.01, 38.06 11.54, 42.17 9.97 C46.29 8.41, 48.26 5.12, 49.82 3.08 C51.39 1.04, 51.47 -1.46, 51.59 -2.28" stroke="#087f5b" stroke-width="1" fill="none"></path></g></g><mask></mask><g stroke-linecap="round"><g transform="translate(1693.1088253354226 71.57230721627411) rotate(89.99999999999994 25.286239536301878 4.621570289024788)"><path d="M-0.91 0.68 C-1 1.52, -0.89 3.76, 0.49 4.87 C1.86 5.98, 5 6.54, 7.35 7.32 C9.7 8.09, 11.38 9.04, 14.6 9.5 C17.82 9.96, 22.31 10.26, 26.68 10.06 C31.05 9.87, 37.31 9.56, 40.81 8.33 C44.31 7.11, 45.9 4.19, 47.69 2.74 C49.47 1.28, 51.08 0.33, 51.53 -0.39 M0.81 -0.01 C1.01 0.51, 1.77 1.75, 2.75 3.18 C3.74 4.6, 4.72 7.32, 6.73 8.56 C8.73 9.79, 11.71 10.25, 14.79 10.59 C17.86 10.94, 20.61 11.19, 25.2 10.64 C29.78 10.08, 38.54 8.27, 42.29 7.26 C46.04 6.25, 46.27 5.91, 47.72 4.58 C49.17 3.26, 50.24 0.06, 51 -0.69" stroke="#087f5b" stroke-width="1" fill="none"></path></g></g><mask></mask><g stroke-linecap="round" transform="translate(1739.7135984675376 65.71911129538603) rotate(89.99999999999994 25.639064267762706 11.398576284497977)"><path d="M36.61 -0.05 C41.56 0.59, 46.3 3.66, 48.47 6.14 C50.65 8.63, 50.73 12.6, 49.65 14.85 C48.57 17.09, 46.27 18.2, 41.97 19.64 C37.68 21.08, 29.6 23.37, 23.88 23.48 C18.16 23.59, 11.62 22.1, 7.68 20.28 C3.73 18.46, 0.71 15.12, 0.22 12.56 C-0.28 10.01, 1.85 7.08, 4.69 4.95 C7.53 2.83, 11.61 0.22, 17.24 -0.19 C22.88 -0.6, 34.46 2.09, 38.51 2.5 C42.57 2.91, 41.77 2.37, 41.59 2.26 M36.32 1.49 C41.39 2.52, 46.53 5.36, 49.17 7.15 C51.81 8.95, 53.53 9.96, 52.15 12.25 C50.78 14.54, 45.63 18.91, 40.91 20.89 C36.2 22.86, 29.03 24.02, 23.86 24.1 C18.68 24.18, 14.02 23.28, 9.86 21.36 C5.7 19.44, -0.16 15.22, -1.13 12.58 C-2.09 9.94, 1.01 7.65, 4.08 5.52 C7.14 3.4, 12.05 0.86, 17.28 -0.17 C22.52 -1.21, 32.4 -0.8, 35.47 -0.68 C38.54 -0.56, 36.02 0.13, 35.71 0.54" stroke="none" stroke-width="0" fill="#fff"></path><path d="M28.52 0.05 C33.81 0.21, 40.75 2.05, 44.53 3.66 C48.3 5.27, 51.01 7.19, 51.18 9.74 C51.34 12.29, 48.76 16.87, 45.51 18.97 C42.26 21.07, 37.06 22.02, 31.69 22.33 C26.32 22.65, 18.16 21.95, 13.26 20.85 C8.36 19.76, 4.35 17.83, 2.28 15.75 C0.21 13.67, -0.57 10.64, 0.86 8.36 C2.29 6.09, 5.54 3.29, 10.85 2.09 C16.16 0.89, 28.71 1.44, 32.7 1.16 C36.7 0.88, 35.07 0.44, 34.83 0.42 M29.44 0.32 C35.07 0.88, 42.84 2.57, 46.71 4.63 C50.59 6.69, 53.09 10.47, 52.71 12.68 C52.33 14.89, 48.02 16.38, 44.44 17.87 C40.85 19.35, 36.27 20.92, 31.21 21.59 C26.14 22.25, 19.15 23.01, 14.04 21.87 C8.94 20.74, 2.42 17.08, 0.57 14.76 C-1.27 12.44, 1.11 10.07, 2.99 7.96 C4.86 5.85, 7.2 3.43, 11.82 2.1 C16.44 0.78, 27.53 0.5, 30.71 0.03 C33.89 -0.45, 31.12 -1.1, 30.9 -0.73" stroke="#087f5b" stroke-width="1" fill="none"></path></g><g stroke-linecap="round"><g transform="translate(1391.4353513779272 78.33457028081523) rotate(0 113.62608779251855 0)"><path d="M-0.36 0.95 C37.59 0.91, 188.75 1.23, 226.77 0.92 M1.65 0.4 C39.49 0.55, 187.97 -0.65, 225.57 -0.71" stroke="#1e1e1e" stroke-width="1" fill="none"></path></g><g transform="translate(1391.4353513779272 78.33457028081523) rotate(0 113.62608779251855 0)"><path d="M197.43 9.69 C205.14 6.67, 211.33 5.98, 225.57 -0.71 M197.43 9.69 C203.05 7.96, 209.72 5.45, 225.57 -0.71" stroke="#1e1e1e" stroke-width="1" fill="none"></path></g><g transform="translate(1391.4353513779272 78.33457028081523) rotate(0 113.62608779251855 0)"><path d="M197.32 -10.83 C205.25 -9.31, 211.46 -5.45, 225.57 -0.71 M197.32 -10.83 C202.77 -7.89, 209.46 -5.72, 225.57 -0.71" stroke="#1e1e1e" stroke-width="1" fill="none"></path></g></g><mask></mask><g transform="translate(1623.4550551220907 10) rotate(0 75.9800033569336 12.5)"><text x="0" y="0" font-family="Virgil, Segoe UI Emoji" font-size="20px" fill="#1e1e1e" text-anchor="start" style="white-space: pre;" direction="ltr" dominant-baseline="text-before-edge">OrderProcessed</text></g><g stroke-linecap="round"><g transform="translate(1289.5323389654068 133.8576336933852) rotate(0 74.38654668648519 87.04085698524018)"><path d="M0.55 -0.29 C25.28 28.51, 124.67 144.58, 149.45 173.49 M-0.62 -1.49 C23.92 27.4, 123.97 145.46, 148.86 174.72" stroke="#1e1e1e" stroke-width="1" fill="none"></path></g><g transform="translate(1289.5323389654068 133.8576336933852) rotate(0 74.38654668648519 87.04085698524018)"><path d="M122.8 159.87 C132.47 166.63, 142.06 172.03, 148.86 174.72 M122.8 159.87 C129.32 163.27, 135.58 165.64, 148.86 174.72" stroke="#1e1e1e" stroke-width="1" fill="none"></path></g><g transform="translate(1289.5323389654068 133.8576336933852) rotate(0 74.38654668648519 87.04085698524018)"><path d="M138.44 146.58 C142.14 158.56, 145.68 169.09, 148.86 174.72 M138.44 146.58 C141.53 152.95, 144.28 158.3, 148.86 174.72" stroke="#1e1e1e" stroke-width="1" fill="none"></path></g></g><mask></mask><g stroke-linecap="round"><g transform="translate(1440.8237742168915 306.90458590903165) rotate(0 44.06059301640448 47.85201411482009)" fill-rule="evenodd"><path d="M1.02 -2.41 C1.7 12.42, 2.93 71.09, 2.47 87.11 C2 103.13, -2.39 91.58, -1.75 93.73 C-1.12 95.88, 2.57 98.21, 6.26 100 C9.95 101.79, 13.58 103.46, 20.37 104.46 C27.15 105.46, 38.1 106.65, 46.97 106.01 C55.83 105.37, 66.88 102.23, 73.55 100.62 C80.22 99.01, 84.89 97.44, 86.98 96.33 C89.08 95.21, 85.53 95.53, 86.13 93.94 C86.74 92.35, 90.64 100.9, 90.6 86.79 C90.57 72.68, 86.74 24.02, 85.91 9.3 C85.09 -5.42, 86.45 0.78, 85.63 -1.54 C84.81 -3.86, 83.62 -3.74, 81.02 -4.62 C78.42 -5.49, 76.29 -6.33, 70.03 -6.8 C63.76 -7.28, 51.3 -7.24, 43.42 -7.48 C35.55 -7.73, 29.6 -9.09, 22.76 -8.28 C15.92 -7.47, 6.15 -4.13, 2.39 -2.62 C-1.38 -1.11, 0.81 0.44, 0.18 0.77 C-0.45 1.09, -1.06 -0.34, -1.4 -0.65" stroke="none" stroke-width="0" fill="#228be6" fill-rule="evenodd"></path><path d="M0.59 -1.01 C0.72 13.18, 0.33 70.14, 0.33 86.13 C0.32 102.11, 0 92.52, 0.57 94.89 C1.15 97.27, 0.54 99.08, 3.78 100.37 C7.02 101.67, 12.97 102.01, 20.02 102.68 C27.07 103.35, 37.3 104.46, 46.1 104.4 C54.91 104.34, 66.35 103.38, 72.87 102.34 C79.38 101.3, 82.54 99.24, 85.18 98.18 C87.81 97.13, 88.18 97.66, 88.68 96 C89.19 94.34, 88.21 102.81, 88.2 88.21 C88.18 73.61, 88.75 23.31, 88.59 8.4 C88.44 -6.51, 88.34 0.79, 87.26 -1.25 C86.17 -3.29, 84.99 -2.98, 82.1 -3.83 C79.21 -4.68, 76.6 -5.34, 69.92 -6.36 C63.25 -7.37, 50.23 -9.52, 42.05 -9.93 C33.87 -10.35, 27.16 -9.69, 20.84 -8.84 C14.52 -8, 7.64 -6.22, 4.11 -4.88 C0.58 -3.53, 0.28 -1.4, -0.35 -0.77 C-0.99 -0.14, 0.34 -1.27, 0.31 -1.07 M-0.56 1.07 C-0.54 15.39, -0.72 71.93, -0.61 87.7 C-0.49 103.48, -0.6 93.39, 0.1 95.71 C0.81 98.03, -0.03 100.49, 3.63 101.63 C7.29 102.77, 14.82 102.3, 22.05 102.55 C29.29 102.81, 38.44 102.87, 47.06 103.16 C55.67 103.45, 67 105.24, 73.72 104.31 C80.44 103.37, 85.1 99.09, 87.38 97.55 C89.67 96.01, 87.16 96.62, 87.42 95.07 C87.69 93.52, 88.68 103.04, 88.98 88.25 C89.29 73.46, 89.79 21.41, 89.25 6.34 C88.7 -8.73, 86.85 -0.38, 85.72 -2.15 C84.6 -3.92, 85.22 -3.59, 82.47 -4.27 C79.72 -4.95, 75.97 -5.7, 69.23 -6.2 C62.49 -6.7, 49.92 -6.96, 42.03 -7.28 C34.13 -7.6, 28.34 -8.53, 21.84 -8.11 C15.34 -7.69, 6.97 -5.98, 3.04 -4.75 C-0.9 -3.53, -1.14 -1.34, -1.8 -0.78 C-2.46 -0.22, -1.16 -1.32, -0.91 -1.38" stroke="#0a11d3" stroke-width="1" fill="none"></path></g></g><mask></mask><g stroke-linecap="round"><g transform="translate(1441.511135806389 372.1947139398192) rotate(0 44.15404313987267 4.4486519362182975)"><path d="M0.03 0.07 C0.42 0.73, 0.96 1.72, 2.89 2.95 C4.81 4.18, 7.85 6.6, 11.6 7.47 C15.35 8.35, 19.72 7.93, 25.41 8.18 C31.1 8.43, 38.08 9.09, 45.75 8.97 C53.42 8.84, 64.99 8.43, 71.44 7.42 C77.9 6.42, 81.53 4.1, 84.47 2.93 C87.42 1.76, 88.45 0.81, 89.09 0.4 M-1.41 -0.93 C-1.18 -0.06, -0.35 2.34, 2.23 3.98 C4.82 5.63, 10.22 8.15, 14.09 8.95 C17.97 9.74, 19.94 8.73, 25.5 8.77 C31.07 8.8, 40.16 9, 47.48 9.16 C54.8 9.31, 63.21 10.4, 69.41 9.7 C75.61 9, 81.51 6.49, 84.69 4.96 C87.87 3.42, 88.14 1.4, 88.48 0.51" stroke="#0a11d3" stroke-width="1" fill="none"></path></g></g><mask></mask><g stroke-linecap="round"><g transform="translate(1440.4173942943273 339.12055937774744) rotate(0 44.15404313987267 4.4486519362182975)"><path d="M0.56 -0.96 C0.82 -0.27, -0.35 3.01, 1.57 4.2 C3.48 5.39, 8.18 5.43, 12.06 6.2 C15.94 6.96, 19.01 8.37, 24.83 8.79 C30.66 9.2, 39.47 8.9, 47.04 8.69 C54.6 8.48, 63.71 8.25, 70.22 7.53 C76.73 6.8, 83.05 5.51, 86.07 4.34 C89.09 3.17, 87.86 1.1, 88.34 0.49 M-0.6 1.16 C0.03 1.46, 1.92 1.25, 3.88 2.23 C5.84 3.2, 7.68 5.75, 11.14 7 C14.6 8.24, 18.85 9.4, 24.62 9.69 C30.39 9.98, 38.02 8.71, 45.78 8.73 C53.54 8.76, 64.92 10.74, 71.2 9.86 C77.49 8.98, 80.78 4.98, 83.47 3.44 C86.15 1.91, 86.64 1.23, 87.33 0.65" stroke="#0a11d3" stroke-width="1" fill="none"></path></g></g><mask></mask><g stroke-linecap="round" transform="translate(1439.2965716081658 298.87988968193497) rotate(0 43.825373054270926 8.863351988406833)"><path d="M35.57 0.19 C44.27 -0.21, 56.96 0.29, 65.22 1.27 C73.47 2.25, 81.79 4.38, 85.11 6.09 C88.43 7.79, 88.24 9.75, 85.14 11.49 C82.04 13.23, 74.53 15.55, 66.51 16.52 C58.5 17.49, 46.35 17.7, 37.02 17.33 C27.69 16.95, 16.75 15.7, 10.54 14.28 C4.34 12.85, -0.16 10.53, -0.21 8.76 C-0.26 6.99, 3.93 5.02, 10.24 3.65 C16.54 2.29, 32.76 1.16, 37.59 0.57 C42.43 -0.03, 39.25 0.05, 39.26 0.09 M46.25 -0.57 C55.12 -0.69, 66.96 1.15, 73.87 2.44 C80.77 3.74, 86.52 5.39, 87.68 7.21 C88.83 9.03, 86 11.61, 80.82 13.36 C75.64 15.11, 65.55 17.07, 56.58 17.71 C47.61 18.35, 35.51 18.1, 26.98 17.21 C18.45 16.31, 9.62 13.99, 5.39 12.33 C1.16 10.67, -0.49 8.9, 1.6 7.23 C3.69 5.55, 10.35 3.39, 17.92 2.3 C25.48 1.21, 42.35 1.08, 46.98 0.67 C51.61 0.27, 45.89 -0.08, 45.68 -0.14" stroke="none" stroke-width="0" fill="#fff"></path><path d="M40.95 0.19 C49.84 -0.03, 62.04 0.24, 69.58 1.39 C77.13 2.55, 83.89 5.21, 86.2 7.11 C88.5 9.02, 87.5 11.13, 83.42 12.82 C79.34 14.51, 70.32 16.51, 61.73 17.25 C53.15 17.99, 41.04 17.83, 31.91 17.27 C22.78 16.71, 12.15 15.44, 6.93 13.88 C1.71 12.31, -0.58 9.83, 0.58 7.88 C1.75 5.93, 6.96 3.48, 13.9 2.16 C20.85 0.85, 37.29 0.28, 42.25 -0.03 C47.22 -0.33, 43.69 0.19, 43.69 0.32 M36.96 0.37 C45.59 0.01, 58.06 -0.08, 66.18 0.74 C74.3 1.56, 82.5 3.36, 85.68 5.3 C88.87 7.25, 88.86 10.64, 85.29 12.43 C81.71 14.21, 72.51 15.15, 64.24 16 C55.97 16.85, 44.78 17.75, 35.67 17.53 C26.56 17.3, 15.52 16.05, 9.58 14.63 C3.63 13.22, -0.28 11.08, 0.01 9.02 C0.3 6.96, 5.04 3.88, 11.3 2.27 C17.56 0.66, 33.33 -0.25, 37.6 -0.64 C41.86 -1.03, 36.7 -0.34, 36.88 -0.1" stroke="#0a11d3" stroke-width="1" fill="none"></path></g><g stroke-linecap="round" transform="translate(1510.8063039087463 323.4556925590685) rotate(0 6.423028523489961 6.970952181208048)"><path d="M5.94 0.17 C7.29 0.02, 9.36 0.87, 10.46 1.66 C11.56 2.45, 12.22 3.53, 12.55 4.92 C12.88 6.31, 12.99 8.65, 12.45 10 C11.9 11.35, 10.58 12.47, 9.27 13.02 C7.96 13.57, 5.99 13.7, 4.59 13.31 C3.2 12.93, 1.62 11.81, 0.92 10.71 C0.23 9.61, 0.19 8.08, 0.42 6.71 C0.65 5.34, 1.31 3.62, 2.3 2.48 C3.29 1.34, 5.76 0.28, 6.38 -0.13 C7 -0.54, 6.03 -0.18, 6 0 M7.91 0.22 C9.27 0.46, 11.02 1.06, 11.9 2.19 C12.78 3.33, 13.3 5.37, 13.19 7.02 C13.08 8.67, 12.16 10.93, 11.23 12.11 C10.31 13.29, 8.9 14.07, 7.63 14.09 C6.36 14.12, 4.75 13.06, 3.59 12.27 C2.44 11.49, 1.16 10.62, 0.7 9.36 C0.24 8.11, 0.24 6.07, 0.83 4.74 C1.41 3.42, 3.12 2.21, 4.2 1.4 C5.28 0.58, 6.76 0.14, 7.31 -0.14 C7.86 -0.42, 7.43 -0.38, 7.49 -0.27" stroke="none" stroke-width="0" fill="#fff"></path><path d="M4.98 -0.22 C6.24 -0.54, 8.06 0.44, 9.36 1.23 C10.66 2.03, 12.21 3.16, 12.8 4.55 C13.38 5.93, 13.31 8.18, 12.87 9.57 C12.43 10.96, 11.49 12.15, 10.17 12.88 C8.86 13.62, 6.37 14.19, 4.98 13.96 C3.59 13.73, 2.63 12.71, 1.84 11.51 C1.06 10.31, 0.4 8.25, 0.28 6.75 C0.15 5.25, 0.33 3.59, 1.11 2.5 C1.9 1.42, 4.32 0.64, 4.97 0.23 C5.63 -0.17, 5 -0.03, 5.04 0.08 M4.51 -0.39 C5.87 -0.96, 8.26 -0.8, 9.67 0.03 C11.09 0.87, 12.62 3.2, 13.01 4.6 C13.4 5.99, 12.45 7.02, 12.02 8.39 C11.59 9.75, 11.49 11.85, 10.43 12.81 C9.36 13.76, 7.08 14.25, 5.63 14.13 C4.18 14.01, 2.59 13.34, 1.7 12.08 C0.82 10.82, 0.36 8.26, 0.34 6.58 C0.33 4.9, 0.93 3.15, 1.61 2.02 C2.3 0.89, 3.77 0.11, 4.46 -0.2 C5.15 -0.51, 5.77 -0.12, 5.78 0.16" stroke="#0a11d3" stroke-width="1" fill="none"></path></g><g stroke-linecap="round" transform="translate(1510.8063039087463 354.05814641812896) rotate(0 6.423028523489961 6.970952181208048)"><path d="M6.84 0.38 C8.12 0.24, 9.51 0.49, 10.53 1.41 C11.55 2.33, 12.72 4.43, 12.98 5.9 C13.24 7.37, 12.87 9.04, 12.11 10.25 C11.35 11.46, 9.77 12.67, 8.41 13.17 C7.04 13.67, 5.12 13.66, 3.93 13.26 C2.73 12.85, 1.78 11.95, 1.21 10.76 C0.64 9.57, 0.26 7.69, 0.51 6.13 C0.75 4.58, 1.69 2.47, 2.69 1.43 C3.7 0.38, 5.8 0.03, 6.53 -0.14 C7.26 -0.31, 6.95 0.29, 7.06 0.42 M5.5 -0.49 C6.83 -0.91, 8.7 -0.38, 9.87 0.5 C11.05 1.38, 12.04 3.32, 12.55 4.8 C13.07 6.29, 13.32 8.15, 12.97 9.42 C12.62 10.69, 11.64 11.61, 10.45 12.42 C9.27 13.22, 7.3 14.31, 5.87 14.26 C4.44 14.2, 2.76 13.18, 1.89 12.1 C1.02 11.02, 0.83 9.41, 0.66 7.77 C0.48 6.14, 0.13 3.64, 0.82 2.27 C1.51 0.9, 4.07 -0.07, 4.79 -0.46 C5.51 -0.86, 4.93 -0.28, 5.12 -0.1" stroke="none" stroke-width="0" fill="#fff"></path><path d="M6.74 0.35 C8.15 0.44, 10.23 1, 11.31 2.04 C12.39 3.09, 13.07 5.14, 13.21 6.61 C13.36 8.08, 13.1 9.66, 12.18 10.86 C11.27 12.06, 9.08 13.41, 7.72 13.82 C6.36 14.22, 5.17 14, 4.03 13.31 C2.89 12.61, 1.58 11.01, 0.88 9.65 C0.19 8.29, -0.38 6.52, -0.14 5.15 C0.1 3.78, 1.18 2.28, 2.31 1.41 C3.44 0.54, 5.86 0.1, 6.64 -0.08 C7.42 -0.26, 6.99 0.23, 6.98 0.33 M7.32 -0.71 C8.83 -0.52, 10.82 1.31, 11.65 2.39 C12.48 3.46, 12.19 4.31, 12.28 5.74 C12.37 7.17, 12.9 9.6, 12.19 10.97 C11.49 12.34, 9.49 13.51, 8.07 13.96 C6.65 14.4, 4.87 14.45, 3.68 13.65 C2.49 12.85, 1.45 10.7, 0.92 9.16 C0.4 7.62, 0.31 5.78, 0.53 4.4 C0.75 3.02, 1.02 1.62, 2.22 0.87 C3.42 0.12, 7.06 -0.1, 7.76 -0.12 C8.45 -0.13, 6.6 0.73, 6.37 0.8" stroke="#0a11d3" stroke-width="1" fill="none"></path></g><g stroke-linecap="round" transform="translate(1510.8063039087463 387.3189475926256) rotate(0 6.423028523489961 6.970952181208048)"><path d="M6.8 -0.26 C8.09 -0.31, 10.09 0.98, 11.12 2.02 C12.15 3.06, 12.9 4.56, 12.98 5.98 C13.06 7.39, 12.44 9.26, 11.6 10.5 C10.77 11.75, 9.19 12.91, 7.96 13.45 C6.72 13.98, 5.34 14.21, 4.19 13.72 C3.03 13.22, 1.64 11.9, 1.03 10.47 C0.42 9.04, 0.29 6.67, 0.52 5.12 C0.76 3.57, 1.34 1.98, 2.46 1.17 C3.59 0.37, 6.37 0.47, 7.27 0.3 C8.18 0.13, 7.97 0.1, 7.87 0.17 M6.85 -0.36 C8.13 -0.27, 9.68 0.97, 10.75 2.04 C11.81 3.1, 12.91 4.71, 13.23 6.04 C13.54 7.37, 13.36 8.69, 12.65 10.01 C11.95 11.32, 10.35 13.27, 8.98 13.94 C7.62 14.62, 5.71 14.52, 4.46 14.03 C3.21 13.55, 2.3 12.49, 1.48 11.05 C0.65 9.6, -0.57 7.03, -0.49 5.35 C-0.41 3.67, 0.81 1.94, 1.96 0.99 C3.11 0.03, 5.56 -0.19, 6.41 -0.37 C7.27 -0.54, 7.08 -0.24, 7.09 -0.05" stroke="none" stroke-width="0" fill="#fff"></path><path d="M5.69 0.11 C7.07 -0.23, 8.84 0.48, 10.05 1.21 C11.27 1.95, 12.62 3.14, 12.96 4.52 C13.3 5.9, 12.58 8.08, 12.07 9.5 C11.56 10.92, 11 12.36, 9.92 13.04 C8.83 13.71, 7.02 13.83, 5.55 13.55 C4.09 13.28, 2.12 12.48, 1.13 11.4 C0.13 10.32, -0.4 8.59, -0.41 7.08 C-0.43 5.57, 0.09 3.48, 1.03 2.34 C1.97 1.19, 4.52 0.6, 5.22 0.2 C5.93 -0.2, 5.18 -0.08, 5.28 -0.04 M5.9 0.45 C7.02 0.11, 7.85 -0.43, 9.02 0.24 C10.2 0.91, 12.38 2.94, 12.96 4.48 C13.54 6.03, 13.04 8.04, 12.5 9.52 C11.96 11, 10.83 12.74, 9.7 13.34 C8.57 13.94, 7.03 13.55, 5.72 13.12 C4.41 12.69, 2.9 11.85, 1.86 10.78 C0.81 9.71, -0.6 8.08, -0.54 6.69 C-0.48 5.29, 1.34 3.4, 2.2 2.41 C3.06 1.42, 4.19 1.18, 4.6 0.76 C5.02 0.34, 4.6 -0.11, 4.69 -0.11" stroke="#0a11d3" stroke-width="1" fill="none"></path></g><g stroke-linecap="round"><g transform="translate(1693.5135026331632 101.27851502020883) rotate(0 25.85567330741401 71.72864207863256)"><path d="M0.19 0.04 C9.06 23.94, 43.7 120.35, 52.39 144.19 M-1.16 -0.98 C7.68 22.5, 42.95 118.25, 51.79 142.45" stroke="#1e1e1e" stroke-width="1" fill="none"></path></g><g transform="translate(1693.5135026331632 101.27851502020883) rotate(0 25.85567330741401 71.72864207863256)"><path d="M32.44 119.53 C37.14 125.91, 42.76 131.09, 51.79 142.45 M32.44 119.53 C37.96 126.35, 42.68 132.01, 51.79 142.45" stroke="#1e1e1e" stroke-width="1" fill="none"></path></g><g transform="translate(1693.5135026331632 101.27851502020883) rotate(0 25.85567330741401 71.72864207863256)"><path d="M51.71 112.45 C52 120.5, 53.17 127.31, 51.79 142.45 M51.71 112.45 C51.97 121.22, 51.49 128.79, 51.79 142.45" stroke="#1e1e1e" stroke-width="1" fill="none"></path></g></g><mask></mask><g stroke-linecap="round" transform="translate(1650.696422314289 252.91988448901833) rotate(0 96.19653488901918 48.53158516923486)"><path d="M24.27 0 C58.37 1.52, 91.01 -1.1, 168.13 0 M24.27 0 C66.29 -0.29, 108.62 -0.9, 168.13 0 M168.13 0 C186.11 -1.52, 193.95 6.3, 192.39 24.27 M168.13 0 C182.34 0.09, 194.14 9.4, 192.39 24.27 M192.39 24.27 C193.07 33.76, 190.17 43.31, 192.39 72.8 M192.39 24.27 C191.56 42.65, 192.57 62.41, 192.39 72.8 M192.39 72.8 C191.87 90.09, 183.87 98.07, 168.13 97.06 M192.39 72.8 C194.45 90.87, 182.35 97.68, 168.13 97.06 M168.13 97.06 C111.68 98.41, 58.44 98.29, 24.27 97.06 M168.13 97.06 C123.28 95.86, 80.08 97.47, 24.27 97.06 M24.27 97.06 C7.54 97.05, 1.14 87.74, 0 72.8 M24.27 97.06 C9.8 98.5, -1.2 88.61, 0 72.8 M0 72.8 C0.55 58.91, -1.15 46.7, 0 24.27 M0 72.8 C-1.32 59.22, -1.29 45.31, 0 24.27 M0 24.27 C0 9.83, 9.27 0.1, 24.27 0 M0 24.27 C0.93 7.53, 7.24 1.62, 24.27 0" stroke="#1e1e1e" stroke-width="1" fill="none"></path></g><g transform="translate(1703.382958881775 288.9514696582532) rotate(0 43.5099983215332 12.5)"><text x="43.5099983215332" y="0" font-family="Virgil, Segoe UI Emoji" font-size="20px" fill="#1e1e1e" text-anchor="middle" style="white-space: pre;" direction="ltr" dominant-baseline="text-before-edge">Analytics</text></g></svg>